<svg width="114" height="45" viewBox="0 0 114 45" fill="none" xmlns="http://www.w3.org/2000/svg">
<g filter="url(#filter0_d_106_3315)">
<path d="M60.1758 20.6758L60.5273 20.5C60.791 20.3945 61.0898 20.2012 61.4414 19.9199C61.793 19.6387 62.127 19.3047 62.4785 18.9004C62.8301 18.5137 63.1289 17.9863 63.375 17.3535C63.6211 16.7207 63.7617 16.0176 63.7617 15.2793C63.7617 13.293 62.9883 11.623 61.4414 10.2871C59.8945 8.95117 57.8379 8.26562 55.3066 8.26562C54.1992 8.26562 53.1445 8.40625 52.1426 8.6875C51.123 8.96875 50.3145 9.26758 49.7168 9.58398C49.1016 9.90039 48.5215 10.2871 47.9941 10.7266C47.4668 11.1836 47.1328 11.4824 46.9922 11.6582C46.8516 11.834 46.7461 11.957 46.6758 12.0449L49.9102 15.2793L50.4551 14.6992C50.8066 14.3301 51.3691 13.9434 52.1777 13.5391C52.9863 13.1523 53.8477 12.9414 54.7617 12.9414C55.8164 12.9414 56.6602 13.2227 57.2754 13.75C57.873 14.2949 58.1895 14.9805 58.1895 15.8242C58.1895 16.7383 57.873 17.4766 57.2578 18.0391C56.6426 18.6016 55.8164 18.8828 54.7617 18.8828H52.248V23.3828H54.9551C56.2383 23.3828 57.2402 23.6992 57.9785 24.2969C58.7168 24.9121 59.0859 25.6855 59.0859 26.6172C59.0859 27.5664 58.6992 28.3398 57.9609 28.9375C57.2227 29.5527 56.1504 29.8516 54.7617 29.8516C54.0586 29.8516 53.3906 29.7637 52.7402 29.5703C52.0898 29.3945 51.5625 29.1836 51.1406 28.9375C50.7188 28.6914 50.332 28.4277 49.9629 28.1113C49.5762 27.7949 49.3477 27.584 49.2422 27.4609C49.1367 27.3379 49.0488 27.2324 49.0137 27.1621L45.7617 30.5723L46.1309 30.9766C46.3594 31.2754 46.7461 31.6094 47.2734 31.9961C47.8008 32.3828 48.4336 32.752 49.1367 33.1387C49.8398 33.5254 50.7363 33.8594 51.8438 34.1406C52.9512 34.4219 54.1113 34.5449 55.3066 34.5449C58.1191 34.5449 60.3691 33.8066 62.0918 32.3125C63.8145 30.8359 64.6758 29.0605 64.6758 26.9863C64.6758 26.0723 64.5 25.2461 64.1836 24.4727C63.8496 23.6992 63.4805 23.1016 63.0938 22.6621C62.707 22.2402 62.25 21.8535 61.7402 21.5195C61.2129 21.1855 60.8613 20.9746 60.6504 20.8867C60.4395 20.7988 60.2812 20.7285 60.1758 20.6758ZM73.5 21.3965C73.5 18.7598 74.0273 16.7207 75.0996 15.2793C76.1543 13.8379 77.4199 13.1172 78.8965 13.1172C80.3555 13.1172 81.6211 13.8379 82.6934 15.2793C83.748 16.7207 84.293 18.7598 84.293 21.3965C84.293 24.0332 83.748 26.0723 82.6934 27.5137C81.6211 28.9551 80.3555 29.6758 78.8965 29.6758C77.4199 29.6758 76.1543 28.9551 75.0996 27.5137C74.0273 26.0723 73.5 24.0332 73.5 21.3965ZM89.6895 21.3965C89.6895 17.459 88.6348 14.2949 86.543 11.8867C84.4336 9.47852 81.8848 8.26562 78.8965 8.26562C75.8906 8.26562 73.3418 9.47852 71.25 11.8867C69.1406 14.2949 68.1035 17.459 68.1035 21.3965C68.1035 25.334 69.1406 28.5156 71.25 30.9238C73.3418 33.3496 75.8906 34.5449 78.8965 34.5449C81.8848 34.5449 84.4336 33.3496 86.543 30.9238C88.6348 28.5156 89.6895 25.334 89.6895 21.3965ZM103.189 31.8379V25.7207H109.324V21.2207H103.189V15.1035H99.0586V21.2207H92.9414V25.7207H99.0586V31.8379H103.189Z" fill="url(#paint0_linear_106_3315)"/>
<path d="M21.2321 23.332V22.774C21.2321 22.0935 20.6806 21.542 20.0006 21.542C19.3201 21.542 18.7686 22.0935 18.7686 22.774V23.332C18.7686 24.0125 19.3201 24.564 20.0006 24.564C20.6801 24.564 21.2321 24.0125 21.2321 23.332Z" fill="#F0145A"/>
<path d="M22.0769 24.0135C21.8039 24.907 20.9814 25.563 20.0004 25.563C19.0189 25.563 18.1964 24.907 17.9234 24.0135H9.43886C8.90336 24.0135 8.39736 23.889 7.94336 23.673V29.3065C7.94336 30.4065 8.84336 31.3065 9.94336 31.3065H30.0564C31.1564 31.3065 32.0564 30.4065 32.0564 29.3065V23.6735C31.6019 23.8895 31.0964 24.014 30.5609 24.014H22.0769V24.0135Z" fill="#F0145A"/>
<path d="M30.4775 13.8975H25.677C25.387 12.0845 23.8165 10.6935 21.923 10.6935H18.0765C16.183 10.6935 14.613 12.0845 14.3225 13.8975H9.52247C8.37647 13.8975 7.43896 14.7975 7.43896 15.8975V20.514C7.43896 21.6185 8.33447 22.514 9.43897 22.514H17.829C17.8575 21.9385 18.1045 21.4215 18.495 21.0475C18.507 21.036 18.521 21.027 18.5335 21.016C18.62 20.9365 18.71 20.8615 18.8085 20.7965C18.8435 20.773 18.8835 20.757 18.92 20.736C19.001 20.6895 19.081 20.641 19.1685 20.605C19.237 20.5765 19.311 20.56 19.383 20.5385C19.445 20.52 19.504 20.4955 19.5685 20.4825C19.708 20.454 19.8525 20.439 20 20.439C20.148 20.439 20.292 20.4545 20.4315 20.4825C20.4955 20.4955 20.5545 20.52 20.6165 20.5385C20.6885 20.56 20.7625 20.5765 20.831 20.6055C20.918 20.6415 20.9975 20.6895 21.0785 20.736C21.1155 20.7575 21.1555 20.7735 21.191 20.797C21.2895 20.8615 21.379 20.9365 21.4655 21.016C21.478 21.0275 21.4925 21.0365 21.5045 21.0485C21.8955 21.4225 22.142 21.9395 22.1705 22.515H30.5605C31.665 22.515 32.5605 21.6195 32.5605 20.515V15.8985C32.561 14.7975 31.6235 13.8975 30.4775 13.8975ZM16.248 13.8975C16.503 13.127 17.2215 12.5655 18.0765 12.5655H21.923C22.778 12.5655 23.4965 13.127 23.7515 13.8975H16.248Z" fill="#F0145A"/>
</g>
<defs>
<filter id="filter0_d_106_3315" x="0" y="0" width="115" height="50" filterUnits="userSpaceOnUse" color-interpolation-filters="sRGB">
<feFlood flood-opacity="0" result="BackgroundImageFix"/>
<feColorMatrix in="SourceAlpha" type="matrix" values="0 0 0 0 0 0 0 0 0 0 0 0 0 0 0 0 0 0 127 0" result="hardAlpha"/>
<feOffset dy="4"/>
<feGaussianBlur stdDeviation="2"/>
<feComposite in2="hardAlpha" operator="out"/>
<feColorMatrix type="matrix" values="0 0 0 0 0 0 0 0 0 0 0 0 0 0 0 0 0 0 0.25 0"/>
<feBlend mode="normal" in2="BackgroundImageFix" result="effect1_dropShadow_106_3315"/>
<feBlend mode="normal" in="SourceGraphic" in2="effect1_dropShadow_106_3315" result="shape"/>
</filter>
<linearGradient id="paint0_linear_106_3315" x1="45.5156" y1="11.76" x2="111.078" y2="11.9926" gradientUnits="userSpaceOnUse">
<stop stop-color="#F0145A"/>
<stop offset="1" stop-color="#EF8080"/>
</linearGradient>
</defs>
</svg>
